# xmcd CD database file
# Copyright (C) 1996 Ti Kan
#
# Track frame offsets:
#	150
#	21427
#	36258
#	53528
#	70737
#	86431
#	101544
#	118828
#	131965
#	144826
#	159473
#	176809
# Disc length: 2532 seconds
#
# Revision: 1
# Processed by: cddbd v1.5PL3 Copyright (c) Steve Scherf et al.
# Submitted via: CDCOPY 4.900
#
DISCID=a209e20c
DTITLE=Varius Manx - Emi
DYEAR=1900
DGENRE=
TTITLE0=Pamiêtaj mnie
TTITLE1=Stay in my heart
TTITLE2=Zatañcz ze mn¹
TTITLE3=Dziêkujê
TTITLE4=Czas ukoi nas
TTITLE5=Idê dalej
TTITLE6=Bez nich
TTITLE7=Happy people
TTITLE8=Be the one
TTITLE9=Wolni
TTITLE10=Broken wings
TTITLE11=Sonny
EXTD=
EXTT0=
EXTT1=
EXTT2=
EXTT3=
EXTT4=
EXTT5=
EXTT6=
EXTT7=
EXTT8=
EXTT9=
EXTT10=
EXTT11=
PLAYORDER=
